<?xml version="1.0" encoding="iso-8859-1"?>
<!-- Generator: Adobe Illustrator 19.0.0, SVG Export Plug-In . SVG Version: 6.00 Build 0)  -->
<svg version="1.1" id="Capa_1" xmlns="http://www.w3.org/2000/svg" xmlns:xlink="http://www.w3.org/1999/xlink" x="0px" y="0px"
	 viewBox="0 0 512 512" style="enable-background:new 0 0 512 512;" xml:space="preserve">
<g>
	<g>
		<g>
			<path d="M214.646,30.74c-12.063-12.094-33.167-12.125-45.271-0.031L30.708,169.375c-6.042,6.042-9.375,14.083-9.375,22.625
				s3.333,16.583,9.375,22.625L297.354,481.26c6.042,6.063,14.083,9.406,22.646,9.406c8.542,0,16.583-3.333,22.625-9.375
				l138.667-138.667c6.042-6.042,9.375-14.083,9.375-22.625s-3.333-16.583-9.375-22.625L214.646,30.74z M402.208,380.875
				l-21.333,21.333c-2.083,2.083-4.813,3.125-7.542,3.125c-2.729,0-5.458-1.042-7.542-3.125c-4.167-4.167-4.167-10.917,0-15.083
				l21.333-21.333c4.167-4.167,10.917-4.167,15.083,0C406.375,369.958,406.375,376.708,402.208,380.875z M293.339,416.911
				L68.417,192L192,68.427l224.917,224.906L293.339,416.911z"/>
			<path d="M152.458,131.125l-21.333,21.333c-4.167,4.167-4.167,10.917,0,15.083c2.083,2.083,4.813,3.125,7.542,3.125
				c2.729,0,5.458-1.042,7.542-3.125l21.333-21.333c4.167-4.167,4.167-10.917,0-15.083
				C163.375,126.958,156.625,126.958,152.458,131.125z"/>
			<circle cx="192" cy="96" r="10.667"/>
			<path d="M292.375,0.223c-9.549-1.375-18.618,3.707-22.568,12.527c-3.44,7.681-1.479,16.747,3.947,23.181l51.267,60.791
				c5.813,6.865,15.292,9.354,23.625,6.292c8.417-3.083,14.021-11.083,14.021-20.042V69.036
				c64.063,37.323,106.667,106.99,106.667,184.604v10.667c0,5.891,4.776,10.667,10.667,10.667h21.333
				c5.891,0,10.667-4.776,10.667-10.667V253.64C512,127.067,417.583,18.119,292.375,0.223z"/>
			<path d="M186.979,415.277c-5.813-6.865-15.292-9.354-23.625-6.292c-8.417,3.083-14.021,11.083-14.021,20.042v13.938
				C85.271,405.641,42.667,335.975,42.667,258.36v-10.667c0-5.891-4.776-10.667-10.667-10.667H10.667
				C4.776,237.027,0,241.803,0,247.694v10.667c0,126.573,94.417,235.521,219.625,253.417c9.549,1.375,18.618-3.707,22.568-12.527
				c3.44-7.681,1.479-16.747-3.947-23.181L186.979,415.277z"/>
		</g>
	</g>
</g>
<g>
</g>
<g>
</g>
<g>
</g>
<g>
</g>
<g>
</g>
<g>
</g>
<g>
</g>
<g>
</g>
<g>
</g>
<g>
</g>
<g>
</g>
<g>
</g>
<g>
</g>
<g>
</g>
<g>
</g>
</svg>
