<svg height="512pt" viewBox="0 0 512 512" width="512pt" xmlns="http://www.w3.org/2000/svg" xmlns:xlink="http://www.w3.org/1999/xlink"><linearGradient id="a" gradientUnits="userSpaceOnUse" x1="0" x2="512" y1="256" y2="256"><stop offset="0" stop-color="#00f38d"/><stop offset="1" stop-color="#009eff"/></linearGradient><path d="m512 256c0 141.386719-114.613281 256-256 256s-256-114.613281-256-256 114.613281-256 256-256 256 114.613281 256 256zm0 0" fill="url(#a)"/><g fill="#fff"><path d="m383.074219 87.992188h-254.148438c-22.570312 0-40.933593 18.363281-40.933593 40.933593v240.082031c0 30.328126 24.671874 55 55 55h226.015624c30.328126 0 55-24.671874 55-55v-240.082031c0-22.570312-18.363281-40.933593-40.933593-40.933593zm10.933593 281.015624c0 13.785157-11.214843 25-25 25h-226.015624c-13.785157 0-25-11.214843-25-25v-118.753906h276.015624zm-276.015624-148.753906v-91.328125c0-6.03125 4.902343-10.933593 10.933593-10.933593h254.148438c6.027343 0 10.933593 4.902343 10.933593 10.933593v91.328125zm0 0"/><path d="m326.675781 163.808594-23.835937-23.511719-21.066406 21.355469 45.019531 44.417968 44.574219-44.476562-21.1875-21.234375zm0 0"/><path d="m150.320312 278.605469h211.359376v30h-211.359376zm0 0"/><path d="m150.320312 336.953125h211.359376v30h-211.359376zm0 0"/></g></svg>